<svg width="1024" height="1024" viewBox="0 0 1024 1024" fill="none" xmlns="http://www.w3.org/2000/svg">
<rect width="1024" height="1024" fill="#2D2D2D"/>
<path d="M335.341 512L214.541 232H284.541L390.141 480H348.941L456.141 232H520.541L399.341 512H335.341ZM543.919 512V232H665.119C690.185 232 711.785 236.133 729.919 244.4C748.052 252.4 762.052 264 771.919 279.2C781.785 294.4 786.719 312.533 786.719 333.6C786.719 354.4 781.785 372.4 771.919 387.6C762.052 402.533 748.052 414 729.919 422C711.785 430 690.185 434 665.119 434H579.919L608.719 405.6V512H543.919ZM721.919 512L651.919 410.4H721.119L791.919 512H721.919ZM608.719 412.8L579.919 382.4H661.519C681.519 382.4 696.452 378.133 706.319 369.6C716.185 360.8 721.119 348.8 721.119 333.6C721.119 318.133 716.185 306.133 706.319 297.6C696.452 289.067 681.519 284.8 661.519 284.8H579.919L608.719 254V412.8Z" fill="#E81134"/>
<path d="M172.819 731L228.979 605H257.779L314.119 731H283.519L237.439 619.76H248.959L202.699 731H172.819ZM200.899 704L208.639 681.86H273.439L281.359 704H200.899ZM327.192 731V605H381.732C393.012 605 402.732 606.86 410.892 610.58C419.052 614.18 425.352 619.4 429.792 626.24C434.232 633.08 436.452 641.24 436.452 650.72C436.452 660.08 434.232 668.18 429.792 675.02C425.352 681.74 419.052 686.9 410.892 690.5C402.732 694.1 393.012 695.9 381.732 695.9H343.392L356.352 683.12V731H327.192ZM407.292 731L375.792 685.28H406.932L438.792 731H407.292ZM356.352 686.36L343.392 672.68H380.112C389.112 672.68 395.832 670.76 400.272 666.92C404.712 662.96 406.932 657.56 406.932 650.72C406.932 643.76 404.712 638.36 400.272 634.52C395.832 630.68 389.112 628.76 380.112 628.76H343.392L356.352 614.9V686.36ZM486.375 655.76H547.035V678.44H486.375V655.76ZM488.535 707.6H557.115V731H459.555V605H554.775V628.4H488.535V707.6ZM580.317 731V605H604.437L678.777 695.72H667.077V605H695.877V731H671.937L597.417 640.28H609.117V731H580.317ZM709.128 731L765.288 605H794.088L850.428 731H819.828L773.748 619.76H785.268L739.008 731H709.128ZM737.208 704L744.948 681.86H809.748L817.668 704H737.208Z" fill="white"/>
</svg>
